<svg version="1.1" preserveAspectRatio="none" xmlns="http://www.w3.org/2000/svg" width="500" height="500" viewBox="0 0 500 500"><rect width="100%" height="100%" fill="#3B3B3B" fill-opacity="1"/><svg viewBox="75.9837 502.4463 364.4748 246.2" width="333" height="224.93900812895703" x="83.5px" y="137.5305px" xmlns="http://www.w3.org/2000/svg" xmlns:xlink="http://www.w3.org/1999/xlink" preserveAspectRatio="none"><defs></defs><style>.a6izo4zJpcolor {fill:#FFCC57;fill-opacity:1;}.aIptOCySncolors-3 {fill:#161616;fill-opacity:1;}.aIptOCySncolors-4 {fill:#F7F7F7;fill-opacity:1;}.aIptOCySncolors-5 {fill:#EDF577;fill-opacity:1;}.aIptOCySncolors-6 {fill:#C4C4C4;fill-opacity:1;}.aIptOCySncolors-7 {fill:#555555;fill-opacity:1;}.companyName {fill:#F7F7F7;fill-opacity:1;}.icon1 {fill:#FFCC57;fill-opacity:1;}.icon2 {fill:#EF802F;fill-opacity:1;}.icon3 {fill:#DB5192;fill-opacity:1;}.icon3-str {stroke:#DB5192;stroke-opacity:1;}</style><g opacity="1" transform="rotate(0 75.9837 502.4463)">
<svg width="63.688" height="120" x="75.9837" y="502.4463" version="1.1" preserveAspectRatio="none" viewBox="24.68600082397461 6.413000106811523 46.703006744384766 87.99700164794922">
  <g transform="matrix(1 0 0 1 0 0)" class="icon1"><g><path d="M35.652,6.413c-6.047,0-10.966,7.304-10.966,16.281c0,6.872,2.919,12.988,7.195,15.289l-1.92,51.748   c0,2.635,3.059,4.679,5.69,4.679c2.632,0,5.691-2.044,5.69-4.725l-1.919-51.701c4.276-2.301,7.195-8.417,7.195-15.29   C46.617,13.716,41.698,6.413,35.652,6.413z M37.668,36.051l-0.808,0.331l1.981,53.348c0,0.978-1.76,2.179-3.191,2.179   c-1.431,0-3.19-1.201-3.191-2.133l1.982-53.395l-0.808-0.331c-3.797-1.556-6.449-7.049-6.449-13.357   c0-7.47,3.877-13.781,8.466-13.781c4.589,0,8.465,6.311,8.465,13.781C44.117,29.002,41.465,34.495,37.668,36.051z"></path><path d="M31.233,22.694c0-6.038,2.861-9.733,4.418-9.733v-2.5c-3.75,0-6.918,5.602-6.918,12.233c0,6.352,2.761,10.807,5.488,11.925   l0.948-2.313C33.535,31.636,31.233,28.21,31.233,22.694z"></path><rect x="34.401" y="77.945" width="2.5" height="11.005"></rect><rect x="59.895" y="77.212" width="2.5" height="11.232"></rect><path d="M68.891,7.663v22.162c0,3.425-2.197,6.4-5.467,7.404l-0.918,0.282l1.922,51.73c0,1.086-1.927,2.249-3.283,2.249   c-1.355,0-3.282-1.163-3.283-2.203l1.923-51.776l-0.918-0.282c-3.27-1.005-5.466-3.98-5.466-7.404V7.663h-2.5v22.162   c0,4.201,2.501,7.892,6.315,9.465l-1.854,49.951c0,2.675,3.108,4.749,5.782,4.749c2.675,0,5.783-2.074,5.782-4.795l-1.853-49.905   c3.815-1.572,6.316-5.263,6.316-9.465V7.663H68.891z"></path><rect x="57.259" y="7.663" width="2.5" height="19.67"></rect><rect x="63.015" y="7.663" width="2.5" height="19.67"></rect><path d="M59.897,35.93l0.727-2.392c-3.111-0.946-3.584-3.85-3.603-3.974l-2.476,0.347C54.571,30.098,55.225,34.51,59.897,35.93z"></path></g></g>
</svg>
</g><g opacity="1" transform="rotate(0 75.9837 723.4463)">
<svg width="364.4748" height="25.2" x="75.9837" y="723.4463" version="1.1" preserveAspectRatio="none" viewBox="1.88 -29.68 544.4 37.64">
  <g transform="matrix(1 0 0 1 0 0)" class="a6izo4zJpcolor"><path id="id-6izo4zJp24" d="M12.28 0.24Q9.16 0.24 6.30-0.76Q3.44-1.76 1.88-3.40L1.88-3.40L3.04-5.68Q4.56-4.16 7.08-3.22Q9.60-2.28 12.28-2.28L12.28-2.28Q16.04-2.28 17.92-3.66Q19.80-5.04 19.80-7.24L19.80-7.24Q19.80-8.92 18.78-9.92Q17.76-10.92 16.28-11.46Q14.80-12 12.16-12.64L12.16-12.64Q9-13.44 7.12-14.18Q5.24-14.92 3.90-16.44Q2.56-17.96 2.56-20.56L2.56-20.56Q2.56-22.68 3.68-24.42Q4.80-26.16 7.12-27.20Q9.44-28.24 12.88-28.24L12.88-28.24Q15.28-28.24 17.58-27.58Q19.88-26.92 21.56-25.76L21.56-25.76L20.56-23.40Q18.80-24.56 16.80-25.14Q14.80-25.72 12.88-25.72L12.88-25.72Q9.20-25.72 7.34-24.30Q5.48-22.88 5.48-20.64L5.48-20.64Q5.48-18.96 6.50-17.94Q7.52-16.92 9.06-16.38Q10.60-15.84 13.20-15.20L13.20-15.20Q16.28-14.44 18.18-13.70Q20.08-12.96 21.40-11.46Q22.72-9.96 22.72-7.40L22.72-7.40Q22.72-5.28 21.58-3.54Q20.44-1.80 18.08-0.78Q15.72 0.24 12.28 0.24L12.28 0.24Z M37.92-21.20Q42.04-21.20 44.24-19.14Q46.44-17.08 46.44-13.04L46.44-13.04L46.44 0L43.72 0L43.72-3.28Q42.76-1.64 40.90-0.72Q39.04 0.20 36.48 0.20L36.48 0.20Q32.96 0.20 30.88-1.48Q28.80-3.16 28.80-5.92L28.80-5.92Q28.80-8.60 30.74-10.24Q32.68-11.88 36.92-11.88L36.92-11.88L43.60-11.88L43.60-13.16Q43.60-15.88 42.08-17.30Q40.56-18.72 37.64-18.72L37.64-18.72Q35.64-18.72 33.80-18.06Q31.96-17.40 30.64-16.24L30.64-16.24L29.36-18.36Q30.96-19.72 33.20-20.46Q35.44-21.20 37.92-21.20L37.92-21.20ZM36.92-2.04Q39.32-2.04 41.04-3.14Q42.76-4.24 43.60-6.32L43.60-6.32L43.60-9.76L37-9.76Q31.60-9.76 31.60-6L31.60-6Q31.60-4.16 33-3.10Q34.40-2.04 36.92-2.04L36.92-2.04Z M70.64-21.04L73.44-21.04L64.08 0L61.16 0L51.84-21.04L54.80-21.04L62.68-3.12L70.64-21.04Z M87.44 0.20Q84.40 0.20 81.96-1.18Q79.52-2.56 78.12-5Q76.72-7.44 76.72-10.52L76.72-10.52Q76.72-13.60 78.12-16.04Q79.52-18.48 81.96-19.84Q84.40-21.20 87.44-21.20L87.44-21.20Q90.48-21.20 92.92-19.84Q95.36-18.48 96.74-16.04Q98.12-13.60 98.12-10.52L98.12-10.52Q98.12-7.44 96.74-5Q95.36-2.56 92.92-1.18Q90.48 0.20 87.44 0.20L87.44 0.20ZM87.44-2.32Q89.68-2.32 91.46-3.34Q93.24-4.36 94.24-6.24Q95.24-8.12 95.24-10.52L95.24-10.52Q95.24-12.92 94.24-14.80Q93.24-16.68 91.46-17.70Q89.68-18.72 87.44-18.72L87.44-18.72Q85.20-18.72 83.42-17.70Q81.64-16.68 80.62-14.80Q79.60-12.92 79.60-10.52L79.60-10.52Q79.60-8.12 80.62-6.24Q81.64-4.36 83.42-3.34Q85.20-2.32 87.44-2.32L87.44-2.32Z M108.64-16.92Q109.64-19.04 111.62-20.12Q113.60-21.20 116.52-21.20L116.52-21.20L116.52-18.44L115.84-18.48Q112.52-18.48 110.64-16.44Q108.76-14.40 108.76-10.72L108.76-10.72L108.76 0L105.92 0L105.92-21.04L108.64-21.04L108.64-16.92Z M146.52-3.32L147.52-1.28Q146.72-0.56 145.54-0.18Q144.36 0.20 143.08 0.20L143.08 0.20Q140.12 0.20 138.52-1.40Q136.92-3 136.92-5.92L136.92-5.92L136.92-18.64L133.16-18.64L133.16-21.04L136.92-21.04L136.92-25.64L139.76-25.64L139.76-21.04L146.16-21.04L146.16-18.64L139.76-18.64L139.76-6.08Q139.76-4.20 140.70-3.22Q141.64-2.24 143.40-2.24L143.40-2.24Q144.28-2.24 145.10-2.52Q145.92-2.80 146.52-3.32L146.52-3.32Z M165.40-21.20Q169.36-21.20 171.70-18.90Q174.04-16.60 174.04-12.20L174.04-12.20L174.04 0L171.20 0L171.20-11.92Q171.20-15.20 169.56-16.92Q167.92-18.64 164.88-18.64L164.88-18.64Q161.48-18.64 159.50-16.62Q157.52-14.60 157.52-11.04L157.52-11.04L157.52 0L154.68 0L154.68-29.68L157.52-29.68L157.52-17.36Q158.68-19.20 160.72-20.20Q162.76-21.20 165.40-21.20L165.40-21.20Z M202.20-10.52L202.16-9.64L184.56-9.64Q184.80-6.36 187.08-4.34Q189.36-2.32 192.84-2.32L192.84-2.32Q194.80-2.32 196.44-3.02Q198.08-3.72 199.28-5.08L199.28-5.08L200.88-3.24Q199.48-1.56 197.38-0.68Q195.28 0.20 192.76 0.20L192.76 0.20Q189.52 0.20 187.02-1.18Q184.52-2.56 183.12-5Q181.72-7.44 181.72-10.52L181.72-10.52Q181.72-13.60 183.06-16.04Q184.40-18.48 186.74-19.84Q189.08-21.20 192.00-21.20L192.00-21.20Q194.92-21.20 197.24-19.84Q199.56-18.48 200.88-16.06Q202.20-13.64 202.20-10.52L202.20-10.52ZM192.00-18.76Q188.96-18.76 186.90-16.82Q184.84-14.88 184.56-11.76L184.56-11.76L199.48-11.76Q199.20-14.88 197.14-16.82Q195.08-18.76 192.00-18.76L192.00-18.76Z M231.20 0.20Q228.08 0.20 225.62-1.16Q223.16-2.52 221.76-4.98Q220.36-7.44 220.36-10.52L220.36-10.52Q220.36-13.60 221.76-16.04Q223.16-18.48 225.62-19.84Q228.08-21.20 231.20-21.20L231.20-21.20Q233.92-21.20 236.06-20.14Q238.20-19.08 239.44-17.04L239.44-17.04L237.32-15.60Q236.28-17.16 234.68-17.94Q233.08-18.72 231.20-18.72L231.20-18.72Q228.92-18.72 227.10-17.70Q225.28-16.68 224.26-14.80Q223.24-12.92 223.24-10.52L223.24-10.52Q223.24-8.08 224.26-6.22Q225.28-4.36 227.10-3.34Q228.92-2.32 231.20-2.32L231.20-2.32Q233.08-2.32 234.68-3.08Q236.28-3.84 237.32-5.40L237.32-5.40L239.44-3.96Q238.20-1.92 236.04-0.86Q233.88 0.20 231.20 0.20L231.20 0.20Z M249.72-16.92Q250.72-19.04 252.70-20.12Q254.68-21.20 257.60-21.20L257.60-21.20L257.60-18.44L256.92-18.48Q253.60-18.48 251.72-16.44Q249.84-14.40 249.84-10.72L249.84-10.72L249.84 0L247.00 0L247.00-21.04L249.72-21.04L249.72-16.92Z M282.88-10.52L282.84-9.64L265.24-9.64Q265.48-6.36 267.76-4.34Q270.04-2.32 273.52-2.32L273.52-2.32Q275.48-2.32 277.12-3.02Q278.76-3.72 279.96-5.08L279.96-5.08L281.56-3.24Q280.16-1.56 278.06-0.68Q275.96 0.20 273.44 0.20L273.44 0.20Q270.20 0.20 267.70-1.18Q265.20-2.56 263.80-5Q262.40-7.44 262.40-10.52L262.40-10.52Q262.40-13.60 263.74-16.04Q265.08-18.48 267.42-19.84Q269.76-21.20 272.68-21.20L272.68-21.20Q275.60-21.20 277.92-19.84Q280.24-18.48 281.56-16.06Q282.88-13.64 282.88-10.52L282.88-10.52ZM272.68-18.76Q269.64-18.76 267.58-16.82Q265.52-14.88 265.24-11.76L265.24-11.76L280.16-11.76Q279.88-14.88 277.82-16.82Q275.76-18.76 272.68-18.76L272.68-18.76Z M297.44-21.20Q301.56-21.20 303.76-19.14Q305.96-17.08 305.96-13.04L305.96-13.04L305.96 0L303.24 0L303.24-3.28Q302.28-1.64 300.42-0.72Q298.56 0.20 296.00 0.20L296.00 0.20Q292.48 0.20 290.40-1.48Q288.32-3.16 288.32-5.92L288.32-5.92Q288.32-8.60 290.26-10.24Q292.20-11.88 296.44-11.88L296.44-11.88L303.12-11.88L303.12-13.16Q303.12-15.88 301.60-17.30Q300.08-18.72 297.16-18.72L297.16-18.72Q295.16-18.72 293.32-18.06Q291.48-17.40 290.16-16.24L290.16-16.24L288.88-18.36Q290.48-19.72 292.72-20.46Q294.96-21.20 297.44-21.20L297.44-21.20ZM296.44-2.04Q298.84-2.04 300.56-3.14Q302.28-4.24 303.12-6.32L303.12-6.32L303.12-9.76L296.52-9.76Q291.12-9.76 291.12-6L291.12-6Q291.12-4.16 292.52-3.10Q293.92-2.04 296.44-2.04L296.44-2.04Z M341.92-21.20Q345.88-21.20 348.14-18.92Q350.40-16.64 350.40-12.20L350.40-12.20L350.40 0L347.56 0L347.56-11.92Q347.56-15.20 345.98-16.92Q344.40-18.64 341.52-18.64L341.52-18.64Q338.24-18.64 336.36-16.62Q334.48-14.60 334.48-11.04L334.48-11.04L334.48 0L331.64 0L331.64-11.92Q331.64-15.20 330.06-16.92Q328.48-18.64 325.56-18.64L325.56-18.64Q322.32-18.64 320.42-16.62Q318.52-14.60 318.52-11.04L318.52-11.04L318.52 0L315.68 0L315.68-21.04L318.40-21.04L318.40-17.20Q319.52-19.12 321.52-20.16Q323.52-21.20 326.12-21.20L326.12-21.20Q328.76-21.20 330.70-20.08Q332.64-18.96 333.60-16.76L333.60-16.76Q334.76-18.84 336.94-20.02Q339.12-21.20 341.92-21.20L341.92-21.20Z M374.60-21.04L377.40-21.04L366.88 2.52Q365.60 5.48 363.92 6.72Q362.24 7.96 359.88 7.96L359.88 7.96Q358.36 7.96 357.04 7.48Q355.72 7 354.76 6.04L354.76 6.04L356.08 3.92Q357.68 5.52 359.92 5.52L359.92 5.52Q361.36 5.52 362.38 4.72Q363.40 3.92 364.28 2L364.28 2L365.20-0.04L355.80-21.04L358.76-21.04L366.68-3.16L374.60-21.04Z M412.24-29.68L415.08-29.68L415.08 0L412.36 0L412.36-4.16Q411.08-2.04 408.98-0.92Q406.88 0.20 404.24 0.20L404.24 0.20Q401.28 0.20 398.88-1.16Q396.48-2.52 395.12-4.96Q393.76-7.40 393.76-10.52L393.76-10.52Q393.76-13.64 395.12-16.08Q396.48-18.52 398.88-19.86Q401.28-21.20 404.24-21.20L404.24-21.20Q406.80-21.20 408.86-20.14Q410.92-19.08 412.24-17.04L412.24-17.04L412.24-29.68ZM404.48-2.32Q406.68-2.32 408.46-3.34Q410.24-4.36 411.26-6.24Q412.28-8.12 412.28-10.52L412.28-10.52Q412.28-12.92 411.26-14.80Q410.24-16.68 408.46-17.70Q406.68-18.72 404.48-18.72L404.48-18.72Q402.24-18.72 400.46-17.70Q398.68-16.68 397.66-14.80Q396.64-12.92 396.64-10.52L396.64-10.52Q396.64-8.12 397.66-6.24Q398.68-4.36 400.46-3.34Q402.24-2.32 404.48-2.32L404.48-2.32Z M443.36-10.52L443.32-9.64L425.72-9.64Q425.96-6.36 428.24-4.34Q430.52-2.32 434.00-2.32L434.00-2.32Q435.96-2.32 437.60-3.02Q439.24-3.72 440.44-5.08L440.44-5.08L442.04-3.24Q440.64-1.56 438.54-0.68Q436.44 0.20 433.92 0.20L433.92 0.20Q430.68 0.20 428.18-1.18Q425.68-2.56 424.28-5Q422.88-7.44 422.88-10.52L422.88-10.52Q422.88-13.60 424.22-16.04Q425.56-18.48 427.90-19.84Q430.24-21.20 433.16-21.20L433.16-21.20Q436.08-21.20 438.40-19.84Q440.72-18.48 442.04-16.06Q443.36-13.64 443.36-10.52L443.36-10.52ZM433.16-18.76Q430.12-18.76 428.06-16.82Q426.00-14.88 425.72-11.76L425.72-11.76L440.64-11.76Q440.36-14.88 438.30-16.82Q436.24-18.76 433.16-18.76L433.16-18.76Z M451.16 0L451.16-29.68L454.00-29.68L454.00 0L451.16 0Z M463.92 0L463.92-21.04L466.76-21.04L466.76 0L463.92 0ZM465.36-25.64Q464.48-25.64 463.88-26.24Q463.28-26.84 463.28-27.68L463.28-27.68Q463.28-28.48 463.88-29.08Q464.48-29.68 465.36-29.68L465.36-29.68Q466.24-29.68 466.84-29.10Q467.44-28.52 467.44-27.72L467.44-27.72Q467.44-26.84 466.84-26.24Q466.24-25.64 465.36-25.64L465.36-25.64Z M493.44-21.04L496.16-21.04L496.16-2.56Q496.16 2.80 493.54 5.38Q490.92 7.96 485.64 7.96L485.64 7.96Q482.72 7.96 480.10 7.10Q477.48 6.24 475.84 4.72L475.84 4.72L477.28 2.56Q478.80 3.92 480.98 4.68Q483.16 5.44 485.56 5.44L485.56 5.44Q489.56 5.44 491.44 3.58Q493.32 1.72 493.32-2.20L493.32-2.20L493.32-4.88Q492.00-2.88 489.86-1.84Q487.72-0.80 485.12-0.80L485.12-0.80Q482.16-0.80 479.74-2.10Q477.32-3.40 475.94-5.74Q474.56-8.08 474.56-11.04L474.56-11.04Q474.56-14 475.94-16.32Q477.32-18.64 479.72-19.92Q482.12-21.20 485.12-21.20L485.12-21.20Q487.80-21.20 489.96-20.12Q492.12-19.04 493.44-17L493.44-17L493.44-21.04ZM485.40-3.32Q487.68-3.32 489.52-4.30Q491.36-5.28 492.38-7.04Q493.40-8.80 493.40-11.04L493.40-11.04Q493.40-13.28 492.38-15.02Q491.36-16.76 489.54-17.74Q487.72-18.72 485.40-18.72L485.40-18.72Q483.12-18.72 481.30-17.76Q479.48-16.80 478.46-15.04Q477.44-13.28 477.44-11.04L477.44-11.04Q477.44-8.80 478.46-7.04Q479.48-5.28 481.30-4.30Q483.12-3.32 485.40-3.32L485.40-3.32Z M516.84-21.20Q520.80-21.20 523.14-18.90Q525.48-16.60 525.48-12.20L525.48-12.20L525.48 0L522.64 0L522.64-11.92Q522.64-15.20 521.00-16.92Q519.36-18.64 516.32-18.64L516.32-18.64Q512.92-18.64 510.94-16.62Q508.96-14.60 508.96-11.04L508.96-11.04L508.96 0L506.12 0L506.12-29.68L508.96-29.68L508.96-17.36Q510.12-19.20 512.16-20.20Q514.20-21.20 516.84-21.20L516.84-21.20Z M545.28-3.32L546.28-1.28Q545.48-0.56 544.30-0.18Q543.12 0.20 541.84 0.20L541.84 0.20Q538.88 0.20 537.28-1.40Q535.68-3 535.68-5.92L535.68-5.92L535.68-18.64L531.92-18.64L531.92-21.04L535.68-21.04L535.68-25.64L538.52-25.64L538.52-21.04L544.92-21.04L544.92-18.64L538.52-18.64L538.52-6.08Q538.52-4.20 539.46-3.22Q540.40-2.24 542.16-2.24L542.16-2.24Q543.04-2.24 543.86-2.52Q544.68-2.80 545.28-3.32L545.28-3.32Z"/></g>
</svg>
</g><g opacity="1" transform="rotate(0 75.9837 646.4463)">
<svg width="357.5409" height="60" x="75.9837" y="646.4463" version="1.1" preserveAspectRatio="none" viewBox="1.64 -28.64 174.48000000000002 29.28">
  <g transform="matrix(1 0 0 1 0 0)" class="companyName"><path id="id-D6z1nYkh7" d="M16 0.64Q11.72 0.64 8.46-0.94Q5.20-2.52 3.42-5.36Q1.64-8.20 1.64-11.88L1.64-11.88Q1.64-16.76 3.90-20.56Q6.16-24.36 10.18-26.50Q14.20-28.64 19.32-28.64L19.32-28.64Q23.36-28.64 26.48-27.18Q29.60-25.72 31.12-23.04L31.12-23.04L24.32-17.72Q22.44-21 18.72-21L18.72-21Q16.52-21 14.80-19.92Q13.08-18.84 12.12-16.90Q11.16-14.96 11.16-12.48L11.16-12.48Q11.16-10 12.74-8.50Q14.32-7 16.92-7L16.92-7Q20.48-7 23.16-10.24L23.16-10.24L28.72-4.92Q26.28-1.92 23.18-0.64Q20.08 0.64 16 0.64L16 0.64Z M53.60-28L63.04-28L57.44 0L48 0L50.08-10.32L41.36-10.32L39.28 0L29.84 0L35.44-28L44.88-28L42.88-18.08L51.60-18.08L53.60-28Z M88.92-20.88L75.44-20.88L74.80-17.60L86.64-17.60L85.28-10.80L73.40-10.80L72.68-7.12L86.72-7.12L85.28 0L62 0L67.60-28L90.36-28L88.92-20.88Z M115.84-20.88L102.36-20.88L101.72-17.60L113.56-17.60L112.20-10.80L100.32-10.80L99.60-7.12L113.64-7.12L112.20 0L88.92 0L94.52-28L117.28-28L115.84-20.88Z M145.52-28L144.36-22.20L128.84-7.32L142.04-7.32L140.56 0L114.84 0L116-5.80L131.52-20.68L119.36-20.68L120.84-28L145.52-28Z M176.12-28L161.96-10.16L159.96 0L150.52 0L152.56-10.28L145.56-28L155.04-28L158.84-18.32L166.64-28L176.12-28Z"/></g>
</svg>
</g></svg></svg>